<svg width="48" height="48" viewBox="0 0 48 48" fill="none" xmlns="http://www.w3.org/2000/svg">
<path d="M35 27.9999C35.446 27.9999 35.874 27.9319 36.3 27.8699C36.162 28.3339 36.02 28.8059 35.792 29.2299C35.564 29.8459 35.208 30.3799 34.854 30.9179C34.558 31.4999 34.036 31.8939 33.652 32.3919C33.25 32.8759 32.702 33.1979 32.268 33.5999C31.842 34.0199 31.284 34.2299 30.84 34.5259C30.376 34.7919 29.972 35.0859 29.54 35.2259L28.462 35.6699L27.514 36.0639L28.484 39.9399L29.678 39.6519C30.06 39.5559 30.526 39.4439 31.056 39.3099C31.598 39.2099 32.176 38.9359 32.82 38.6859C33.456 38.4019 34.192 38.2099 34.876 37.7539C35.564 37.3179 36.358 36.9539 37.058 36.3699C37.736 35.7679 38.554 35.2459 39.158 34.4799C39.818 33.7639 40.47 33.0119 40.976 32.1559C41.562 31.3399 41.96 30.4439 42.38 29.5579C42.76 28.6719 43.066 27.7659 43.316 26.8859C43.79 25.1219 44.002 23.4459 44.084 22.0119C44.152 20.5759 44.112 19.3819 44.028 18.5179C43.998 18.1099 43.942 17.7139 43.902 17.4399L43.852 17.1039L43.8 17.1159C43.4442 15.4543 42.6253 13.9273 41.438 12.7116C40.2507 11.4959 38.7435 10.6412 37.0907 10.2463C35.4379 9.85143 33.7071 9.93255 32.0984 10.4803C30.4898 11.028 29.0691 12.02 28.0007 13.3414C26.9323 14.6628 26.2599 16.2597 26.0611 17.9474C25.8624 19.635 26.1455 21.3444 26.8777 22.8779C27.6099 24.4114 28.7613 25.7062 30.1987 26.6126C31.636 27.5191 33.3006 28.0001 35 27.9999ZM13 27.9999C13.446 27.9999 13.874 27.9319 14.3 27.8699C14.162 28.3339 14.02 28.8059 13.792 29.2299C13.564 29.8459 13.208 30.3799 12.854 30.9179C12.558 31.4999 12.036 31.8939 11.652 32.3919C11.25 32.8759 10.702 33.1979 10.268 33.5999C9.84196 34.0199 9.28396 34.2299 8.83996 34.5259C8.37596 34.7919 7.97196 35.0859 7.53996 35.2259L6.46196 35.6699L5.51396 36.0639L6.48396 39.9399L7.67796 39.6519C8.05996 39.5559 8.52596 39.4439 9.05596 39.3099C9.59796 39.2099 10.176 38.9359 10.82 38.6859C11.454 38.3999 12.192 38.2099 12.876 37.7519C13.564 37.3159 14.358 36.9519 15.058 36.3679C15.736 35.7659 16.554 35.2439 17.158 34.4799C17.818 33.7639 18.47 33.0119 18.976 32.1559C19.562 31.3399 19.96 30.4439 20.38 29.5579C20.76 28.6719 21.066 27.7659 21.316 26.8859C21.79 25.1219 22.002 23.4459 22.084 22.0119C22.152 20.5759 22.112 19.3819 22.028 18.5179C21.998 18.1099 21.942 17.7139 21.902 17.4399L21.852 17.1039L21.8 17.1159C21.4442 15.4543 20.6253 13.9273 19.438 12.7116C18.2507 11.4959 16.7435 10.6412 15.0907 10.2463C13.4379 9.85143 11.7071 9.93255 10.0984 10.4803C8.48983 11.028 7.06915 12.02 6.00074 13.3414C4.93234 14.6628 4.25986 16.2597 4.06112 17.9474C3.86238 19.635 4.14549 21.3444 4.87769 22.8779C5.6099 24.4114 6.76128 25.7062 8.19865 26.6126C9.63602 27.5191 11.3006 28.0001 13 27.9999Z" fill="#CAB8AB" fill-opacity="0.58"/>
</svg>
